<svg width="34" height="35" viewBox="0 0 34 35" fill="none" xmlns="http://www.w3.org/2000/svg">
<path d="M18.6278 19.2724L17.5653 22.1354C17.5323 22.2162 17.5323 22.3065 17.5653 22.3874L19.3872 27.3182L21.5051 26.1184L18.9678 19.2724C18.9544 19.2386 18.931 19.2097 18.9007 19.1893C18.8703 19.1689 18.8345 19.158 18.7978 19.158C18.7612 19.158 18.7253 19.1689 18.695 19.1893C18.6647 19.2097 18.6413 19.2386 18.6278 19.2724ZM20.7528 14.4494C20.74 14.4151 20.7168 14.3855 20.6864 14.3646C20.656 14.3437 20.6199 14.3325 20.5828 14.3325C20.5458 14.3325 20.5097 14.3437 20.4793 14.3646C20.4489 14.3855 20.4257 14.4151 20.4128 14.4494L19.3503 17.311C19.3173 17.3918 19.3173 17.4821 19.3503 17.563L22.3438 25.6382L24.456 24.4384L20.7528 14.4424V14.4494Z" fill="#4D8CEC"/>
<path d="M17.0002 8.0359C17.054 8.0359 17.1046 8.0499 17.1518 8.0779L25.3486 12.7861C25.395 12.8119 25.4336 12.8496 25.4603 12.8951C25.4869 12.9407 25.5007 12.9925 25.5002 13.0451V22.2067C25.5005 22.2591 25.4865 22.3106 25.4599 22.3559C25.4332 22.4012 25.3948 22.4386 25.3486 22.4643L17.1518 27.1921C17.1054 27.2176 17.0533 27.231 17.0002 27.231C16.9472 27.231 16.895 27.2176 16.8486 27.1921L8.6518 22.4741C8.60475 22.4479 8.56578 22.4096 8.53908 22.3633C8.51237 22.3169 8.49894 22.2642 8.50022 22.2109V13.0451C8.50022 12.9359 8.56113 12.8407 8.6518 12.7861L16.8486 8.0765C16.8935 8.04666 16.9461 8.03014 17.0002 8.0289V8.0359ZM17.0002 6.8291C16.7155 6.8291 16.4236 6.9061 16.1686 7.0503L8.11772 11.6283C7.86548 11.7716 7.65584 11.9779 7.50986 12.2266C7.36389 12.4753 7.28673 12.7576 7.28613 13.0451V22.2067C7.28613 22.7891 7.60205 23.3351 8.11772 23.6291L16.1686 28.2071C16.4213 28.3519 16.7082 28.4282 17.0002 28.4282C17.2923 28.4282 17.5792 28.3519 17.8318 28.2071L25.8827 23.6291C26.1368 23.4865 26.3477 23.2795 26.4939 23.0295C26.6401 22.7795 26.7162 22.4954 26.7143 22.2067V13.0451C26.7143 12.4627 26.3984 11.9167 25.8827 11.6283L17.8318 7.0503C17.5784 6.90726 17.292 6.83108 17.0002 6.8291Z" fill="#4D8CEC"/>
<path d="M11.6763 25.6509L12.4158 23.6531L13.9033 24.8711L12.5149 26.1311L11.6763 25.6509Z" fill="#4D8CEC"/>
<path d="M16.3273 12.229H14.2802C14.205 12.2306 14.1321 12.255 14.0714 12.2988C14.0106 12.3426 13.9648 12.4037 13.9402 12.474L9.56982 24.4328L11.6764 25.6508L16.4973 12.481C16.5081 12.4529 16.5117 12.4226 16.5077 12.3928C16.5038 12.363 16.4924 12.3346 16.4747 12.3102C16.4577 12.2851 16.4348 12.2645 16.4078 12.2503C16.3809 12.2362 16.3508 12.2288 16.3202 12.229H16.3273ZM19.8973 12.229H17.8573C17.7828 12.2302 17.7104 12.2538 17.6497 12.2965C17.589 12.3393 17.5428 12.3992 17.5173 12.4684L12.5137 26.1128L14.6273 27.3308L20.0673 12.4768C20.0781 12.4494 20.082 12.4197 20.0786 12.3905C20.0753 12.3612 20.0648 12.3332 20.0481 12.3089C20.0313 12.2845 20.0089 12.2645 19.9826 12.2506C19.9564 12.2367 19.9271 12.2293 19.8973 12.229Z" fill="#4D8CEC"/>
</svg>
