<svg width="24" height="24" viewBox="0 0 24 24" fill="none" xmlns="http://www.w3.org/2000/svg">
<g clip-path="url(#clip0_24_13303)">
<path fill-rule="evenodd" clip-rule="evenodd" d="M16.3161 12.8732C16.4414 12.6559 16.6192 12.4736 16.8332 12.3428C17.0472 12.212 17.2905 12.137 17.541 12.1245C17.7915 12.1121 18.0411 12.1627 18.267 12.2716C18.4929 12.3805 18.6878 12.5444 18.8341 12.7482L18.9141 12.8732L22.0481 18.3012C22.1743 18.5196 22.2435 18.7663 22.2491 19.0185C22.2547 19.2708 22.1966 19.5203 22.0801 19.7442C21.9637 19.968 21.7927 20.1588 21.5829 20.299C21.3731 20.4392 21.1314 20.5242 20.8801 20.5462L20.7491 20.5512H14.4801C14.2279 20.5512 13.9799 20.4876 13.7588 20.3664C13.5377 20.2452 13.3507 20.0702 13.2152 19.8576C13.0796 19.645 12.9998 19.4016 12.9832 19.15C12.9666 18.8985 13.0137 18.6467 13.1201 18.4182L13.1811 18.3012L16.3161 12.8732ZM10.8161 3.34715C10.9414 3.12991 11.1192 2.94756 11.3332 2.81678C11.5472 2.686 11.7905 2.61096 12.041 2.59852C12.2915 2.58609 12.5411 2.63666 12.767 2.7456C12.9929 2.85455 13.1878 3.01839 13.3341 3.22215L13.4141 3.34715L15.9271 7.69915C16.0452 7.90383 16.1133 8.13353 16.1258 8.36952C16.1383 8.60552 16.0949 8.84113 15.9991 9.05715L15.9271 9.19915L9.80606 19.8002C9.68661 20.007 9.51949 20.1824 9.31859 20.3116C9.11769 20.4408 8.88884 20.5202 8.65106 20.5432L8.50606 20.5502H3.48106C3.22893 20.5502 2.98085 20.4866 2.75977 20.3654C2.53869 20.2442 2.35173 20.0692 2.21617 19.8566C2.08062 19.644 2.00084 19.4006 1.98422 19.149C1.9676 18.8975 2.01466 18.6457 2.12106 18.4172L2.18206 18.3002L10.8161 3.34715ZM17.6151 14.6232L15.3471 18.5512H19.8831L17.6151 14.6232ZM12.1151 5.09715L4.34706 18.5502H8.21706L14.0501 8.45015L12.1151 5.09715Z" fill="#4D8CEC"/>
</g>
<defs>
<clipPath id="clip0_24_13303">
<rect width="24" height="24" fill="white"/>
</clipPath>
</defs>
</svg>
