<svg width="220" height="278" viewBox="0 0 220 278" fill="none" xmlns="http://www.w3.org/2000/svg">
<path d="M27.7344 156.969C12.5891 156.969 0.3125 144.692 0.3125 129.547V121.109C0.3125 105.964 12.5891 93.6875 27.7344 93.6875C35.8892 93.6875 42.5 100.298 42.5 108.453V142.203C42.5 150.358 35.8892 156.969 27.7344 156.969Z" fill="#437FE5"/>
<path d="M192.266 156.969C207.411 156.969 219.688 144.692 219.688 129.547V121.109C219.688 105.964 207.411 93.6875 192.266 93.6875C184.111 93.6875 177.5 100.298 177.5 108.453V142.203C177.5 150.358 184.111 156.969 192.266 156.969Z" fill="#437FE5"/>
<path d="M118.438 26.1875H101.562V55.7188H118.438V26.1875Z" fill="#437FE5"/>
<g opacity="0.3" filter="url(#filter0_f_27_13727)">
<path d="M110 254C156.89 254 194.902 248.334 194.902 241.343C194.902 234.354 156.89 228.688 110 228.688C63.1096 228.688 25.0977 234.354 25.0977 241.343C25.0977 248.334 63.1096 254 110 254Z" fill="#0B415F"/>
</g>
<path d="M156.407 203.375H63.5935C40.2937 203.375 21.4062 184.488 21.4062 161.188V89.4689C21.4062 66.1684 40.2937 47.2812 63.5935 47.2812H156.407C179.706 47.2812 198.594 66.1684 198.594 89.4689V161.188C198.594 184.488 179.706 203.375 156.407 203.375Z" fill="#8BD2FF"/>
<path opacity="0.3" d="M21.4062 89.4689V110.562C33.0584 110.562 42.5 101.117 42.5 89.4689C42.5 77.8376 51.9628 68.3754 63.5935 68.3754C75.2462 68.3754 84.6877 58.929 84.6877 47.2812H63.5935C40.2937 47.2812 21.4062 66.1684 21.4062 89.4689Z" fill="white"/>
<path opacity="0.15" d="M198.594 161.188V140.094C186.942 140.094 177.5 149.539 177.5 161.188C177.5 172.819 168.037 182.281 156.407 182.281C144.754 182.281 135.312 191.727 135.312 203.376H156.407C179.706 203.376 198.594 184.488 198.594 161.188Z" fill="black"/>
<path d="M110 34.625C119.319 34.625 126.875 27.0698 126.875 17.75C126.875 8.43018 119.319 0.875 110 0.875C100.68 0.875 93.1245 8.43018 93.1245 17.75C93.1245 27.0698 100.68 34.625 110 34.625Z" fill="#437FE5"/>
<path d="M67.8122 140.094C77.1324 140.094 84.6875 132.539 84.6875 123.219C84.6875 113.899 77.1324 106.344 67.8122 106.344C58.4926 106.344 50.9375 113.899 50.9375 123.219C50.9375 132.539 58.4926 140.094 67.8122 140.094Z" fill="#002F94"/>
<path d="M152.188 140.094C161.507 140.094 169.062 132.539 169.062 123.219C169.062 113.899 161.507 106.344 152.188 106.344C142.868 106.344 135.312 113.899 135.312 123.219C135.312 132.539 142.868 140.094 152.188 140.094Z" fill="#002F94"/>
<path d="M38.3315 78.8036C39.7193 75.5258 41.7318 72.5686 44.2124 70.0874C46.693 67.6068 49.6508 65.5949 52.9286 64.2065" stroke="white" stroke-width="20.7656" stroke-miterlimit="10" stroke-linecap="round" stroke-linejoin="round"/>
<defs>
<filter id="filter0_f_27_13727" x="1.99766" y="205.587" width="216.005" height="71.5125" filterUnits="userSpaceOnUse" color-interpolation-filters="sRGB">
<feFlood flood-opacity="0" result="BackgroundImageFix"/>
<feBlend mode="normal" in="SourceGraphic" in2="BackgroundImageFix" result="shape"/>
<feGaussianBlur stdDeviation="11.55" result="effect1_foregroundBlur_27_13727"/>
</filter>
</defs>
</svg>
