<svg width="24" height="24" viewBox="0 0 24 24" fill="none" xmlns="http://www.w3.org/2000/svg">
<path d="M9 10L12.258 12.444C12.4598 12.5954 12.7114 12.6649 12.9624 12.6385C13.2133 12.6122 13.445 12.492 13.611 12.302L20 5" stroke="#4D8CEC" stroke-width="2" stroke-linecap="round"/>
<path d="M21 11.9998C21 13.8804 20.411 15.7137 19.3157 17.2423C18.2203 18.7708 16.6736 19.9179 14.8929 20.5224C13.1122 21.1269 11.1868 21.1583 9.3873 20.6124C7.58776 20.0665 6.00442 18.9706 4.85967 17.4787C3.71492 15.9867 3.06627 14.1736 3.00481 12.2941C2.94335 10.4146 3.47218 8.56305 4.51702 6.9995C5.56187 5.43595 7.07023 4.23896 8.83027 3.57665C10.5903 2.91435 12.5136 2.81999 14.33 3.30684" stroke="#4D8CEC" stroke-width="2" stroke-linecap="round"/>
</svg>
