<svg width="24" height="25" viewBox="0 0 24 25" fill="none" xmlns="http://www.w3.org/2000/svg">
<g clip-path="url(#clip0_15_11372)">
<path d="M6 11H10.5V24.5H6V11ZM7.5 23H9V12.5H7.5V23ZM12 14H16.5V24.5H12V14ZM13.5 23H15V15.5H13.5V23ZM0 17H4.5V24.5H0V17ZM1.5 23H3V18.5H1.5V23ZM18 8H22.5V24.5H18V8ZM19.5 23H21V9.5H19.5V23ZM16.2773 7.77734C16.4258 8.09766 16.5 8.42188 16.5 8.75C16.5 9.0625 16.4414 9.35547 16.3242 9.62891C16.207 9.90234 16.0469 10.1406 15.8438 10.3438C15.6406 10.5469 15.4023 10.707 15.1289 10.8242C14.8555 10.9414 14.5625 11 14.25 11C13.9375 11 13.6445 10.9414 13.3711 10.8242C13.0977 10.707 12.8594 10.5469 12.6562 10.3438C12.4531 10.1406 12.293 9.90234 12.1758 9.62891C12.0586 9.35547 12 9.0625 12 8.75V8.60938C12 8.5625 12.0039 8.51562 12.0117 8.46875L9.80859 7.36719C9.60547 7.57031 9.36719 7.72656 9.09375 7.83594C8.82031 7.94531 8.53906 8 8.25 8C7.92188 8 7.59766 7.92578 7.27734 7.77734L4.27734 10.7773C4.42578 11.0977 4.5 11.4219 4.5 11.75C4.5 12.0625 4.44141 12.3555 4.32422 12.6289C4.20703 12.9023 4.04688 13.1406 3.84375 13.3438C3.64062 13.5469 3.40234 13.707 3.12891 13.8242C2.85547 13.9414 2.5625 14 2.25 14C1.9375 14 1.64453 13.9414 1.37109 13.8242C1.09766 13.707 0.859375 13.5469 0.65625 13.3438C0.453125 13.1406 0.292969 12.9023 0.175781 12.6289C0.0585938 12.3555 0 12.0625 0 11.75C0 11.4375 0.0585938 11.1445 0.175781 10.8711C0.292969 10.5977 0.453125 10.3594 0.65625 10.1562C0.859375 9.95312 1.09766 9.79297 1.37109 9.67578C1.64453 9.55859 1.9375 9.5 2.25 9.5C2.57812 9.5 2.90234 9.57422 3.22266 9.72266L6.22266 6.72266C6.07422 6.40234 6 6.07812 6 5.75C6 5.4375 6.05859 5.14453 6.17578 4.87109C6.29297 4.59766 6.45312 4.35938 6.65625 4.15625C6.85938 3.95312 7.09766 3.79297 7.37109 3.67578C7.64453 3.55859 7.9375 3.5 8.25 3.5C8.5625 3.5 8.85547 3.55859 9.12891 3.67578C9.40234 3.79297 9.64062 3.95312 9.84375 4.15625C10.0469 4.35938 10.207 4.59766 10.3242 4.87109C10.4414 5.14453 10.5 5.4375 10.5 5.75V5.89062C10.5 5.9375 10.4961 5.98438 10.4883 6.03125L12.6914 7.13281C12.8945 6.92969 13.1328 6.77344 13.4062 6.66406C13.6797 6.55469 13.9609 6.5 14.25 6.5C14.5781 6.5 14.9023 6.57422 15.2227 6.72266L18.2227 3.72266C18.0742 3.40234 18 3.07812 18 2.75C18 2.4375 18.0586 2.14453 18.1758 1.87109C18.293 1.59766 18.4531 1.35938 18.6562 1.15625C18.8594 0.953125 19.0977 0.792969 19.3711 0.675781C19.6445 0.558594 19.9375 0.5 20.25 0.5C20.5625 0.5 20.8555 0.558594 21.1289 0.675781C21.4023 0.792969 21.6406 0.953125 21.8438 1.15625C22.0469 1.35938 22.207 1.59766 22.3242 1.87109C22.4414 2.14453 22.5 2.4375 22.5 2.75C22.5 3.0625 22.4414 3.35547 22.3242 3.62891C22.207 3.90234 22.0469 4.14062 21.8438 4.34375C21.6406 4.54688 21.4023 4.70703 21.1289 4.82422C20.8555 4.94141 20.5625 5 20.25 5C19.9219 5 19.5977 4.92578 19.2773 4.77734L16.2773 7.77734ZM2.25 12.5C2.45312 12.5 2.62891 12.4258 2.77734 12.2773C2.92578 12.1289 3 11.9531 3 11.75C3 11.5469 2.92578 11.3711 2.77734 11.2227C2.62891 11.0742 2.45312 11 2.25 11C2.04688 11 1.87109 11.0742 1.72266 11.2227C1.57422 11.3711 1.5 11.5469 1.5 11.75C1.5 11.9531 1.57422 12.1289 1.72266 12.2773C1.87109 12.4258 2.04688 12.5 2.25 12.5ZM20.25 2C20.0469 2 19.8711 2.07422 19.7227 2.22266C19.5742 2.37109 19.5 2.54688 19.5 2.75C19.5 2.95312 19.5742 3.12891 19.7227 3.27734C19.8711 3.42578 20.0469 3.5 20.25 3.5C20.4531 3.5 20.6289 3.42578 20.7773 3.27734C20.9258 3.12891 21 2.95312 21 2.75C21 2.54688 20.9258 2.37109 20.7773 2.22266C20.6289 2.07422 20.4531 2 20.25 2ZM8.25 6.5C8.45312 6.5 8.62891 6.42578 8.77734 6.27734C8.92578 6.12891 9 5.95312 9 5.75C9 5.54688 8.92578 5.37109 8.77734 5.22266C8.62891 5.07422 8.45312 5 8.25 5C8.04688 5 7.87109 5.07422 7.72266 5.22266C7.57422 5.37109 7.5 5.54688 7.5 5.75C7.5 5.95312 7.57422 6.12891 7.72266 6.27734C7.87109 6.42578 8.04688 6.5 8.25 6.5ZM14.25 9.5C14.4531 9.5 14.6289 9.42578 14.7773 9.27734C14.9258 9.12891 15 8.95312 15 8.75C15 8.54688 14.9258 8.37109 14.7773 8.22266C14.6289 8.07422 14.4531 8 14.25 8C14.0469 8 13.8711 8.07422 13.7227 8.22266C13.5742 8.37109 13.5 8.54688 13.5 8.75C13.5 8.95312 13.5742 9.12891 13.7227 9.27734C13.8711 9.42578 14.0469 9.5 14.25 9.5Z" fill="#4D8CEC"/>
</g>
<defs>
<clipPath id="clip0_15_11372">
<rect width="24" height="24" fill="white" transform="translate(0 0.5)"/>
</clipPath>
</defs>
</svg>
