<svg width="24" height="24" viewBox="0 0 24 24" fill="none" xmlns="http://www.w3.org/2000/svg">
<path d="M11.2145 2.25L5.19727 11.6648L12.0028 15.0098L18.7003 11.6617L12.7895 2.25H11.2145ZM11.2498 4.97775V8.241L8.31427 9.573L11.2498 4.97775ZM12.7498 5.00775L15.6133 9.56775L12.7498 8.25375V5.00775ZM11.2498 9.888V12.9683L7.99177 11.3655L11.2498 9.888ZM12.7498 9.90525L15.9343 11.3678L12.7498 12.9585V9.90525ZM5.24977 13.134V15.024L11.1958 21.6562H12.8038L18.7498 15.0233V13.1332L11.9998 16.5938L5.24977 13.134ZM8.64052 16.5585L11.2498 17.8958V19.4678L8.64052 16.5585ZM15.359 16.5585L12.7498 19.4678V17.8958L15.359 16.5585Z" fill="#4D8CEC"/>
</svg>
