<svg width="390" height="390" viewBox="0 0 390 390" fill="none" xmlns="http://www.w3.org/2000/svg">
<g filter="url(#filter0_f_646_54119)">
<circle cx="195" cy="195" r="75" fill="url(#paint0_linear_646_54119)" fill-opacity="0.15"/>
</g>
<path d="M241 177.464C241 173.854 238.082 170.415 233.104 168.009C233.276 167.493 233.276 167.149 233.276 166.633V156.834C233.276 149.613 222.463 143.94 208.388 143.768C205.299 138.61 195.858 135 185.045 135C172.172 135 161.701 139.986 160.843 146.519V155.399V155.974V164.398V164.914V173.338V173.854V182.249V182.799V191.221V191.772V200.294V200.673V209.613C160.843 209.957 160.843 211.332 160.843 212.364C153.634 214.599 149 218.725 149 223.367V232.307V233.166V242.106C149 249.327 160.157 255 174.231 255C186.418 255 196.373 250.702 198.948 244.857C201.866 245.373 204.784 245.716 207.701 245.716C207.873 245.716 207.873 245.716 207.873 245.544C222.634 245.544 234.134 239.699 234.134 232.135V223.023V222.851V213.739V213.567V204.456C234.134 204.284 234.134 204.284 234.134 204.112V196.032C238.254 193.797 240.828 190.53 240.828 187.092V178.84C241 178.324 241 177.98 241 177.464ZM237.567 177.292L237.396 178.496C236.194 182.622 227.44 187.092 215.597 187.092C202.724 187.092 193.799 181.934 193.627 177.464C197.746 178.84 202.552 179.699 207.873 179.699C219.03 179.699 228.299 176.261 231.731 171.103C235.336 172.994 237.396 175.057 237.567 177.292ZM199.463 226.289C202.209 226.633 204.955 226.977 207.701 226.977C217.828 226.805 226.239 224.226 230.701 220.1V222.851C230.701 227.493 221.261 232.822 207.873 232.822C204.955 232.822 202.209 232.479 199.463 232.135V226.289ZM207.873 223.539C204.955 223.539 202.209 223.195 199.463 222.851C199.291 220.272 197.575 217.865 194.657 215.802C198.433 216.834 203.067 217.521 207.873 217.521C217.828 217.521 226.239 214.943 230.701 210.989V213.567C230.701 218.209 221.261 223.539 207.873 223.539ZM185.045 210.817C185.56 211.332 186.075 211.676 186.59 212.02C186.075 211.848 185.56 211.676 185.045 211.676V210.817ZM207.873 214.083C194.485 214.083 185.045 208.926 185.045 204.112V203.252V200.501C189.507 204.456 197.918 207.206 207.873 207.206C217.657 207.206 226.239 204.628 230.701 200.673V204.112C230.701 208.754 221.261 214.083 207.873 214.083ZM207.873 203.768C194.485 203.768 185.045 198.61 185.045 193.797C185.045 191.046 187.619 188.983 190.022 187.607C190.537 194.656 201.522 200.158 215.425 200.158C219.888 200.158 224.179 199.642 227.784 198.61C224.007 201.361 216.97 203.768 207.873 203.768ZM185.903 163.539C190.194 167.493 198.433 169.9 207.873 169.9C217.313 169.9 225.552 167.321 229.843 163.367V166.633C229.843 171.103 220.746 176.261 207.873 176.261C195 176.261 185.903 171.103 185.903 166.633V163.539ZM229.843 156.834C229.843 161.304 220.746 166.461 207.873 166.461C195 166.461 185.903 161.304 185.903 156.834C185.903 152.364 195 147.206 207.873 147.206C220.746 147.206 229.843 152.192 229.843 156.834ZM185.045 138.266C194.313 138.266 201.179 140.845 204.269 143.94C192.082 144.799 182.813 149.957 182.47 156.49C171.313 155.974 164.104 151.504 164.104 147.378C164.104 143.08 172.687 138.266 185.045 138.266ZM164.104 154.083C167.881 157.35 174.575 159.585 182.47 160.1V165.086C171.313 164.57 164.104 160.1 164.104 155.974V155.458V154.083ZM164.104 162.507C167.881 165.774 174.746 168.181 182.813 168.524C183.328 170.587 184.701 172.479 186.761 174.026C186.246 174.026 185.731 174.026 185.045 174.026C172.687 174.026 164.104 169.212 164.104 164.914V164.398V162.507ZM164.104 171.447C168.224 175.057 175.948 177.464 185.045 177.464C186.761 177.464 188.478 177.292 190.022 177.12C190.022 177.12 190.022 177.12 190.022 177.292V182.622C188.478 182.794 186.761 182.966 185.045 182.966C172.687 182.966 164.104 178.152 164.104 173.854V173.338V171.447ZM164.104 180.387C168.396 183.997 176.119 186.404 185.216 186.404C185.388 186.404 185.56 186.404 185.903 186.404C183.843 187.951 182.47 189.842 181.955 191.905C171.142 191.218 164.104 186.92 164.104 182.966V182.45V180.387ZM164.104 189.327C167.709 192.593 174.06 194.828 181.612 195.172V200.673C170.799 199.814 164.104 195.516 164.104 191.562V191.046V189.327ZM164.104 198.266C167.709 201.533 174.06 203.768 181.612 204.284V209.785C170.799 208.926 164.104 204.628 164.104 200.673V200.158V198.266ZM164.104 209.613V207.206C165.649 208.582 167.709 209.785 169.94 210.645C167.881 210.817 165.993 211.16 164.276 211.504C164.276 210.645 164.104 209.785 164.104 209.613ZM174.231 213.739C187.104 213.739 196.03 218.725 196.03 223.195C196.03 227.665 187.104 232.65 174.231 232.65C161.358 232.65 152.433 227.665 152.433 223.195C152.433 218.725 161.358 213.739 174.231 213.739ZM152.433 229.9C156.724 233.682 164.791 236.261 174.231 236.261C183.672 236.261 191.739 233.682 196.03 229.9V233.166C196.03 237.636 187.104 242.622 174.231 242.622C161.358 242.622 152.433 237.636 152.433 233.166V232.307V229.9ZM174.231 251.562C161.358 251.562 152.433 246.576 152.433 242.106V239.699C156.724 243.481 164.791 246.06 174.231 246.06C183.672 246.06 191.739 243.481 196.03 239.699V242.106C196.03 246.576 187.104 251.562 174.231 251.562ZM207.873 242.106C205.127 242.278 202.209 241.934 199.463 241.418V235.573C202.209 235.917 204.955 236.261 207.701 236.261C217.828 236.261 226.239 233.682 230.701 229.556V232.135C230.701 236.777 221.261 242.106 207.873 242.106ZM215.425 196.719C202.552 196.719 193.455 191.562 193.455 187.092V183.997C197.746 187.951 205.985 190.358 215.425 190.358C224.866 190.358 232.933 187.779 237.396 183.997V187.092C237.396 191.562 228.299 196.719 215.425 196.719Z" fill="url(#paint1_linear_646_54119)"/>
<defs>
<filter id="filter0_f_646_54119" x="0" y="0" width="390" height="390" filterUnits="userSpaceOnUse" color-interpolation-filters="sRGB">
<feFlood flood-opacity="0" result="BackgroundImageFix"/>
<feBlend mode="normal" in="SourceGraphic" in2="BackgroundImageFix" result="shape"/>
<feGaussianBlur stdDeviation="60" result="effect1_foregroundBlur_646_54119"/>
</filter>
<linearGradient id="paint0_linear_646_54119" x1="255.975" y1="248.709" x2="115.248" y2="152.551" gradientUnits="userSpaceOnUse">
<stop stop-color="#A866FF"/>
<stop offset="0.502893" stop-color="#008FFF"/>
<stop offset="1" stop-color="#00DEFE"/>
</linearGradient>
<linearGradient id="paint1_linear_646_54119" x1="239.556" y1="131.659" x2="162.732" y2="112.06" gradientUnits="userSpaceOnUse">
<stop stop-color="#A866FF"/>
<stop offset="0.502893" stop-color="#008FFF"/>
<stop offset="1" stop-color="#00DEFE"/>
</linearGradient>
</defs>
</svg>
