<?xml version="1.0" encoding="utf-8"?>
<!-- Generator: Adobe Illustrator 27.2.0, SVG Export Plug-In . SVG Version: 6.00 Build 0)  -->
<svg version="1.1" id="Layer_1" xmlns="http://www.w3.org/2000/svg" xmlns:xlink="http://www.w3.org/1999/xlink" x="0px" y="0px"
	 viewBox="0 0 1065 500" style="enable-background:new 0 0 1065 500;" xml:space="preserve">
<style type="text/css">
	.st0{fill:#FFFFFF;}
	.st1{fill:url(#SVGID_1_);}
	.st2{fill:url(#SVGID_00000133504515116353744640000006060279664510310578_);}
	.st3{fill:url(#SVGID_00000061449863563881791190000006188012432290774709_);}
	.st4{fill:url(#SVGID_00000178887917548447016140000012917236182519848117_);}
	.st5{fill:url(#SVGID_00000108296454299499365420000008977570784487121315_);}
	.st6{fill:url(#SVGID_00000116953323812412369550000007844500496665407874_);}
</style>
<rect x="-1" y="-1" width="1067" height="502"/>
<g>
	<g>
		<path class="st0" d="M182.9,218l-22.8,12.6l89.5,51l0.4-25.3L182.9,218z"/>
		<polygon class="st0" points="186.9,187.1 207.8,199.2 272.5,162.1 252.2,151.1 		"/>
		<polygon class="st0" points="184.8,190.5 184.9,214.6 251.8,252.9 272,240.6 		"/>
		<polygon class="st0" points="254.1,147.6 274.6,158.8 274.6,133.4 254.1,122.3 		"/>
		<path class="st0" d="M180.9,214.5v-28.4l69.3-38.3v-25.3l-92.2,51v53.7L180.9,214.5z"/>
		<polygon class="st0" points="253.4,281.4 273.9,268.9 273.9,244 253.8,256.2 		"/>
		<polygon class="st0" points="180.9,309.6 180.9,249.3 158,263.2 158,321.6 158.4,321.5 		"/>
		<polygon class="st0" points="203.5,321.3 203.5,259.8 184.8,249.2 184.8,309.6 		"/>
		<polygon class="st0" points="160,325 180.5,337.6 201.8,324.8 182.8,313 		"/>
	</g>
	<g>
		<path class="st0" d="M363.4,322.9V153.5h109.2v21.4h-82.8v50.3h68.6v21.2h-68.6V323L363.4,322.9L363.4,322.9z"/>
		<path class="st0" d="M512,377.7l29.6-64.9h-7.2l-48.8-113.2h28.6l37.8,91.3l39.6-91.3h27.9l-79.7,178.2H512z"/>
		<path class="st0" d="M686.1,326c-12,0-22.5-2.8-31.6-8.5c-9.1-5.6-16.3-13.4-21.4-23.2c-5.2-9.8-7.7-20.9-7.7-33.3
			c0-12.4,2.6-23.5,7.7-33.2c5.1-9.7,12.3-17.3,21.5-22.9c9.2-5.6,19.8-8.3,31.7-8.3c9.8,0,18.3,1.9,25.7,5.7
			c7.4,3.8,13.2,9.2,17.3,16.2v-65h26.4v169.5h-23.6l-2.8-19.1c-4,5.8-9.5,10.9-16.5,15.4C706,323.7,697.1,326,686.1,326z
			 M690.8,303.1c11.3,0,20.6-3.9,27.7-11.7c7.2-7.8,10.8-17.8,10.8-30.1c0-12.4-3.6-22.5-10.8-30.2c-7.2-7.7-16.5-11.6-27.7-11.6
			s-20.6,3.8-27.9,11.6S652,248.9,652,261.3c0,8.1,1.7,15.3,5,21.6c3.3,6.3,7.9,11.2,13.8,14.8C676.7,301.2,683.4,303.1,690.8,303.1
			z"/>
		<path class="st0" d="M846.9,326c-12.1,0-22.8-2.7-32.2-8.1c-9.4-5.4-16.7-12.9-22-22.5c-5.3-9.6-8-20.8-8-33.6
			c0-13,2.6-24.3,7.9-34.1c5.2-9.8,12.5-17.4,21.9-22.9c9.3-5.5,20.3-8.2,32.7-8.2c12.1,0,22.6,2.7,31.6,8.1
			c8.9,5.4,15.9,12.6,20.9,21.5c5,8.9,7.5,18.8,7.5,29.6c0,1.7-0.1,3.4-0.1,5.4c-0.1,1.9-0.2,4-0.4,6.3h-96c0.8,12,4.8,21,11.8,27.3
			c7.1,6.2,15.2,9.3,24.5,9.3c7.5,0,13.7-1.7,18.8-5.1c5-3.4,8.9-8,11.4-13.8h26.4c-3.3,11.6-9.9,21.3-19.7,29.1
			C873.6,322.1,861.4,326,846.9,326z M846.9,218.2c-8.8,0-16.6,2.6-23.4,7.9c-6.8,5.2-10.9,13-12.4,23.5h69.6
			c-0.5-9.6-3.9-17.3-10.2-22.9S856.3,218.2,846.9,218.2z"/>
	</g>
</g>
</svg>
