<?xml version="1.0" encoding="utf-8"?>
<!-- Generator: Adobe Illustrator 27.2.0, SVG Export Plug-In . SVG Version: 6.00 Build 0)  -->
<svg version="1.1" id="Layer_1" xmlns="http://www.w3.org/2000/svg"
	xmlns:xlink="http://www.w3.org/1999/xlink" x="0px" y="0px"
	viewBox="0 0 500 500" style="enable-background:new 0 0 500 500;" xml:space="preserve">
<style type="text/css">
	.st0{fill:none;}
	.st1{fill:url(#SVGID_1_);}
	.st2{fill:url(#SVGID_00000078745675884718448220000010613051870336260538_);}
	.st3{fill:url(#SVGID_00000134931627623424879350000013138674900827789960_);}
	.st4{fill:url(#SVGID_00000023980080857330178000000014064906640929080197_);}
	.st5{fill:url(#SVGID_00000062159475151054076680000017560602538247321737_);}
	.st6{fill:url(#SVGID_00000090980191132887289150000002668683677736431527_);}
</style>
<rect x="-1" y="-1" class="st0" width="502" height="502"/>
<g>
	<g>
		<linearGradient id="SVGID_1_" gradientUnits="userSpaceOnUse" x1="172.6355" y1="412.6689" x2="310.9583" y2="96.425">
			<stop  offset="0" style="stop-color:#A866FF"/>
			<stop  offset="8.149239e-02" style="stop-color:#A467FF"/>
			<stop  offset="0.1593" style="stop-color:#996AFF"/>
			<stop  offset="0.2356" style="stop-color:#856EFF"/>
			<stop  offset="0.311" style="stop-color:#6A75FF"/>
			<stop  offset="0.3858" style="stop-color:#487EFF"/>
			<stop  offset="0.459" style="stop-color:#1D88FF"/>
			<stop  offset="0.5035" style="stop-color:#008FFF"/>
			<stop  offset="0.6335" style="stop-color:#00A7FF"/>
			<stop  offset="0.8746" style="stop-color:#00CFFE"/>
			<stop  offset="1" style="stop-color:#00DEFE"/>
		</linearGradient>
		<path class="st1" d="M345.6,95.2l-37.9-20.6c0,0,0,0,0,0c-1.1-0.6-2.4-0.6-3.5,0l-149.8,82.8c-1.2,0.6-1.9,1.9-1.9,3.2v90.9
			c0,1.1,0.6,2.4,1.9,3.2l36.4,20.8l-36.5,22.2c-1.1,0.7-1.8,1.9-1.8,3.1v97.9c0,0,0,0,0,0c0,1.3,0.7,2.4,1.7,3.1l38.2,23.5
			c1.4,0.9,2.9,0.6,3.8,0l38.8-23.5c1.1-0.6,1.7-1.8,1.8-3c0-0.1,0-97,0-97l66.1,37.8c1.4,0.8,2.7,0.5,3.6,0
			c0,0,38.2-23.2,38.2-23.2c1.1-0.7,1.8-1.9,1.8-3.1v-46c0-1.3-0.7-2.5-1.8-3.2c0,0,0,0,0,0l-100.5-57.8l101.5-58.2
			c1.1-0.6,1.8-1.8,1.8-3.1c0,0,0-46.6,0-46.6C347.6,97.1,346.8,95.8,345.6,95.2z M301.8,292.1l-0.6,38.1l-137.5-78.6l34.2-18.8
			L301.8,292.1z M340.2,138.7l-30.6-16.6V84l30.6,16.6V138.7z M302.3,84v38.1l-105.5,58.4c-1,0.6-2.5,2-2.5,4.2c0,0,0,41.8,0,41.8
			l-34.5,19v-82.6L302.3,84z M159.8,302.9l34.5-21v92.6l-34.5,18.1V302.9z M194.3,417.9l-30.8-19l34.3-18l28.4,17.7L194.3,417.9z
			 M229.5,392.1l-27.9-17.4v-93l27.9,15.9V392.1z M339.2,311.2l-30.7,18.7l0.6-37.8l30.1-18.3V311.2z M305.4,285.8l-103.7-59.3
			l-0.1-36.1l134.1,77L305.4,285.8z M236.8,202.1l-31.4-18L306,128.4l30.4,16.5L236.8,202.1z"/>
	</g>
</g>
</svg>