<svg width="24" height="24" viewBox="0 0 24 24" fill="none" xmlns="http://www.w3.org/2000/svg">
<path fill-rule="evenodd" clip-rule="evenodd" d="M7.49987 3.75C8.09661 3.75 8.66891 3.98705 9.09087 4.40901C9.51282 4.83096 9.74987 5.40326 9.74987 6C9.74987 6.59674 9.51282 7.16903 9.09087 7.59099C8.66891 8.01295 8.09661 8.25 7.49987 8.25C6.90314 8.25 6.33084 8.01295 5.90888 7.59099C5.48693 7.16903 5.24987 6.59674 5.24987 6C5.24987 5.40326 5.48693 4.83096 5.90888 4.40901C6.33084 3.98705 6.90314 3.75 7.49987 3.75ZM2.99987 6C3.00057 5.35898 3.13821 4.7255 3.40358 4.14199C3.66894 3.55848 4.05591 3.03839 4.53858 2.61656C5.02124 2.19473 5.58846 1.88088 6.20225 1.69603C6.81604 1.51119 7.46224 1.45961 8.09758 1.54476C8.73292 1.6299 9.34274 1.8498 9.88621 2.18973C10.4297 2.52966 10.8942 2.98178 11.2488 3.51581C11.6034 4.04984 11.8398 4.65346 11.9421 5.28626C12.0445 5.91905 12.0105 6.56641 11.8424 7.185L14.7749 8.862C15.3993 8.22052 16.2008 7.77985 17.077 7.59633C17.9531 7.41281 18.8641 7.49478 19.6935 7.83176C20.5228 8.16875 21.2328 8.74543 21.7327 9.48807C22.2325 10.2307 22.4995 11.1056 22.4995 12.0007C22.4995 12.8959 22.2325 13.7708 21.7327 14.5134C21.2328 15.2561 20.5228 15.8327 19.6935 16.1697C18.8641 16.5067 17.9531 16.5887 17.077 16.4052C16.2008 16.2216 15.3993 15.781 14.7749 15.1395L11.8424 16.815C12.0237 17.4826 12.0488 18.1831 11.9157 18.862C11.7826 19.5409 11.4949 20.18 11.075 20.7298C10.655 21.2796 10.1141 21.7253 9.49407 22.0323C8.87408 22.3393 8.1917 22.4993 7.49987 22.5C6.75722 22.5001 6.02609 22.3163 5.3717 21.9651C4.71731 21.614 4.16001 21.1063 3.74949 20.4874C3.33898 19.8685 3.08802 19.1577 3.01899 18.4182C2.94997 17.6788 3.06502 16.9338 3.3539 16.2496C3.64278 15.5654 4.0965 14.9634 4.67459 14.4972C5.25268 14.031 5.93717 13.7151 6.667 13.5777C7.39684 13.4403 8.14934 13.4857 8.85738 13.7098C9.56542 13.9338 10.207 14.3297 10.7249 14.862L13.6574 13.185C13.4458 12.4092 13.4458 11.5908 13.6574 10.815L10.7249 9.138C10.1005 9.77956 9.29905 10.2203 8.42289 10.4039C7.54672 10.5876 6.63569 10.5057 5.80631 10.1688C4.97692 9.83187 4.26687 9.25525 3.76695 8.51264C3.26702 7.77004 2.99995 6.8952 2.99987 6ZM7.49987 15.75C8.09661 15.75 8.66891 15.9871 9.09087 16.409C9.51282 16.831 9.74987 17.4033 9.74987 18C9.74987 18.5967 9.51282 19.169 9.09087 19.591C8.66891 20.0129 8.09661 20.25 7.49987 20.25C6.90314 20.25 6.33084 20.0129 5.90888 19.591C5.48693 19.169 5.24987 18.5967 5.24987 18C5.24987 17.4033 5.48693 16.831 5.90888 16.409C6.33084 15.9871 6.90314 15.75 7.49987 15.75ZM20.2499 12C20.2499 11.4033 20.0128 10.831 19.5909 10.409C19.1689 9.98705 18.5966 9.75 17.9999 9.75C17.4031 9.75 16.8308 9.98705 16.4089 10.409C15.9869 10.831 15.7499 11.4033 15.7499 12C15.7499 12.5967 15.9869 13.169 16.4089 13.591C16.8308 14.0129 17.4031 14.25 17.9999 14.25C18.5966 14.25 19.1689 14.0129 19.5909 13.591C20.0128 13.169 20.2499 12.5967 20.2499 12Z" fill="#4D8CEC"/>
</svg>
