<svg width="24" height="24" viewBox="0 0 24 24" fill="none" xmlns="http://www.w3.org/2000/svg">
<path fill-rule="evenodd" clip-rule="evenodd" d="M10.9501 6.18764C11.024 6.0596 11.0719 5.91826 11.0912 5.7717C11.1104 5.62514 11.1006 5.47623 11.0623 5.33346C11.024 5.19068 10.958 5.05686 10.8679 4.93961C10.7779 4.82237 10.6657 4.72401 10.5376 4.65014C10.4096 4.57627 10.2683 4.52834 10.1217 4.50909C9.97514 4.48985 9.82623 4.49966 9.68345 4.53796C9.54068 4.57626 9.40686 4.64231 9.28961 4.73234C9.17237 4.82236 9.07401 4.9346 9.00014 5.06264L1.65014 17.8126C1.57627 17.9407 1.52834 18.082 1.50909 18.2286C1.48985 18.3751 1.49966 18.524 1.53796 18.6668C1.57626 18.8096 1.64231 18.9434 1.73234 19.0607C1.82236 19.1779 1.9346 19.2763 2.06264 19.3501C2.19068 19.424 2.33201 19.4719 2.47857 19.4912C2.62513 19.5104 2.77405 19.5006 2.91682 19.4623C3.05959 19.424 3.19342 19.358 3.31066 19.2679C3.4279 19.1779 3.52627 19.0657 3.60014 18.9376L10.9501 6.18764ZM12.0001 18.0001C12.0001 18.398 11.8421 18.7795 11.5608 19.0608C11.2795 19.3421 10.898 19.5001 10.5001 19.5001C10.1023 19.5001 9.72078 19.3421 9.43948 19.0608C9.15817 18.7795 9.00014 18.398 9.00014 18.0001C9.00014 17.6023 9.15817 17.2208 9.43948 16.9395C9.72078 16.6582 10.1023 16.5001 10.5001 16.5001C10.898 16.5001 11.2795 16.6582 11.5608 16.9395C11.8421 17.2208 12.0001 17.6023 12.0001 18.0001ZM15.7501 19.5001C16.148 19.5001 16.5295 19.3421 16.8108 19.0608C17.0921 18.7795 17.2501 18.398 17.2501 18.0001C17.2501 17.6023 17.0921 17.2208 16.8108 16.9395C16.5295 16.6582 16.148 16.5001 15.7501 16.5001C15.3523 16.5001 14.9708 16.6582 14.6895 16.9395C14.4082 17.2208 14.2501 17.6023 14.2501 18.0001C14.2501 18.398 14.4082 18.7795 14.6895 19.0608C14.9708 19.3421 15.3523 19.5001 15.7501 19.5001ZM21.0001 19.5001C21.398 19.5001 21.7795 19.3421 22.0608 19.0608C22.3421 18.7795 22.5001 18.398 22.5001 18.0001C22.5001 17.6023 22.3421 17.2208 22.0608 16.9395C21.7795 16.6582 21.398 16.5001 21.0001 16.5001C20.6023 16.5001 20.2208 16.6582 19.9395 16.9395C19.6582 17.2208 19.5001 17.6023 19.5001 18.0001C19.5001 18.398 19.6582 18.7795 19.9395 19.0608C20.2208 19.3421 20.6023 19.5001 21.0001 19.5001Z" fill="#4D8CEC"/>
</svg>
