<svg width="26" height="22" viewBox="0 0 26 22" fill="none" xmlns="http://www.w3.org/2000/svg">
<path d="M17 6.99996H21M17 11H21M17 15H21M13 16.3333C12.592 15.516 11.756 15 10.8427 15H7.15733C6.244 15 5.408 15.516 5 16.3333M2.33333 1.66663H23.6667C24.0203 1.66663 24.3594 1.8071 24.6095 2.05715C24.8595 2.3072 25 2.64634 25 2.99996V19C25 19.3536 24.8595 19.6927 24.6095 19.9428C24.3594 20.1928 24.0203 20.3333 23.6667 20.3333H2.33333C1.97971 20.3333 1.64057 20.1928 1.39052 19.9428C1.14048 19.6927 1 19.3536 1 19V2.99996C1 2.64634 1.14048 2.3072 1.39052 2.05715C1.64057 1.8071 1.97971 1.66663 2.33333 1.66663ZM11.6667 8.33329C11.6667 9.04054 11.3857 9.71881 10.8856 10.2189C10.3855 10.719 9.70724 11 9 11C8.29276 11 7.61448 10.719 7.11438 10.2189C6.61428 9.71881 6.33333 9.04054 6.33333 8.33329C6.33333 7.62605 6.61428 6.94777 7.11438 6.44767C7.61448 5.94758 8.29276 5.66663 9 5.66663C9.70724 5.66663 10.3855 5.94758 10.8856 6.44767C11.3857 6.94777 11.6667 7.62605 11.6667 8.33329Z" stroke="#4D8CEC" stroke-width="2" stroke-linecap="round" stroke-linejoin="round"/>
</svg>
