<svg width="28" height="29" viewBox="0 0 28 29" fill="none" xmlns="http://www.w3.org/2000/svg">
<path d="M19.7005 10.983C19.6008 11.0741 19.4708 11.1254 19.3353 11.1268H6.51485C6.05985 11.1268 5.83002 10.6095 6.14502 10.3067L8.25085 8.28831C8.34872 8.19436 8.47883 8.14088 8.61485 8.13867H21.4855C21.9452 8.13867 22.1703 8.66067 21.8507 8.96459L19.7005 10.983ZM19.7005 20.9312C19.6001 21.0206 19.4701 21.0702 19.3353 21.0704H6.51485C6.05985 21.0704 5.83002 20.5576 6.14502 20.2549L8.25085 18.2307C8.34898 18.1378 8.4794 18.0863 8.61485 18.0868H21.4855C21.9452 18.0868 22.1703 18.6042 21.8507 18.907L19.7005 20.9312ZM19.7005 13.2543C19.6001 13.1648 19.4701 13.1153 19.3353 13.1151H6.51485C6.05985 13.1151 5.83002 13.6278 6.14502 13.9306L8.25085 15.9548C8.35023 16.0456 8.47984 16.0968 8.61485 16.0986H21.4855C21.9452 16.0986 22.1703 15.5812 21.8507 15.2785L19.7005 13.2543Z" fill="#4D8CEC"/>
</svg>
