<svg width="24" height="24" viewBox="0 0 24 24" fill="none" xmlns="http://www.w3.org/2000/svg">
<path d="M12 8.5C17.5228 8.5 22 7.15685 22 5.5C22 3.84315 17.5228 2.5 12 2.5C6.47715 2.5 2 3.84315 2 5.5C2 7.15685 6.47715 8.5 12 8.5Z" stroke="#4D8CEC" stroke-width="2" stroke-linecap="round" stroke-linejoin="round"/>
<path d="M5.385 7.75C3.31 8.3 2 9.104 2 10C2 11.657 6.477 13 12 13C17.523 13 22 11.657 22 10C22 9.104 20.6905 8.3 18.615 7.75C16.852 8.2165 14.536 8.5 12 8.5C9.464 8.5 7.1485 8.2165 5.385 7.75Z" stroke="#4D8CEC" stroke-width="2" stroke-linecap="round" stroke-linejoin="round"/>
<path d="M5.385 12.25C3.31 12.8 2 13.604 2 14.5C2 16.157 6.477 17.5 12 17.5C17.523 17.5 22 16.157 22 14.5C22 13.604 20.6905 12.8 18.615 12.25" stroke="#4D8CEC" stroke-width="2" stroke-linecap="round" stroke-linejoin="round"/>
<path d="M5.385 16.75C3.31 17.3 2 18.104 2 19C2 20.657 6.477 22 12 22C17.523 22 22 20.657 22 19C22 18.104 20.6905 17.3 18.615 16.75" stroke="#4D8CEC" stroke-width="2" stroke-linecap="round" stroke-linejoin="round"/>
</svg>
