<svg width="18" height="26" viewBox="0 0 18 26" fill="none" xmlns="http://www.w3.org/2000/svg">
<path d="M9 20.4281C8.37125 20.4282 7.76216 20.2019 7.27779 19.7883C6.79343 19.3746 6.46417 18.7995 6.3468 18.1621C4.58123 17.5991 3.02643 16.4889 1.8936 14.9824C1.03839 13.8461 0.450763 12.5202 0.177061 11.1095C-0.09664 9.69873 -0.0489265 8.24165 0.316438 6.85318C0.681803 5.46471 1.35483 4.18283 2.28242 3.10864C3.21001 2.03445 4.36681 1.19734 5.66155 0.663342C6.9563 0.129343 8.35358 -0.0869417 9.74318 0.0315495C11.1328 0.150041 12.4767 0.600066 13.6689 1.34613C14.8612 2.09219 15.8691 3.11388 16.6132 4.33062C17.3573 5.54735 17.8173 6.92585 17.9568 8.35737C18.0054 8.86813 17.5968 9.28417 17.1 9.28417C16.6032 9.28417 16.2054 8.86627 16.146 8.35737C15.9854 7.04393 15.4875 5.79865 14.7039 4.75036C13.9204 3.70208 12.8796 2.88888 11.6892 2.3949C10.4989 1.90093 9.20226 1.74412 7.93348 1.94071C6.66471 2.1373 5.46989 2.68014 4.47265 3.51307C3.47541 4.34599 2.71199 5.43875 2.26137 6.67826C1.81075 7.91777 1.6893 9.25902 1.90959 10.5632C2.12988 11.8674 2.68391 13.0872 3.51435 14.0963C4.34479 15.1054 5.42148 15.8673 6.633 16.303C6.86204 15.8718 7.1976 15.5109 7.60558 15.2568C8.01356 15.0028 8.47943 14.8646 8.95588 14.8565C9.43233 14.8483 9.90238 14.9704 10.3183 15.2104C10.7342 15.4504 11.0812 15.7996 11.324 16.2227C11.5667 16.6458 11.6967 17.1276 11.7005 17.6193C11.7044 18.111 11.5822 18.595 11.3461 19.0221C11.1101 19.4492 10.7687 19.8043 10.3566 20.0512C9.94457 20.2982 9.47651 20.4282 9 20.4281ZM1.8 17.6421V17.5919C1.30782 17.1371 0.857132 16.6366 0.4536 16.0968C0.157888 16.5544 5.80857e-05 17.0921 0 17.6421V18.5707C0 22.2315 3.348 26 9 26C14.652 26 18 22.2315 18 18.5707V17.6421C18 16.9032 17.7155 16.1946 17.2092 15.6721C16.7028 15.1496 16.0161 14.8561 15.3 14.8561H12.6C12.9942 15.3947 13.275 16.0262 13.41 16.7134H15.3C15.5387 16.7134 15.7676 16.8113 15.9364 16.9854C16.1052 17.1596 16.2 17.3958 16.2 17.6421V18.5707C16.2 21.2416 13.6224 24.1427 9 24.1427C4.3776 24.1427 1.8 21.2416 1.8 18.5707V17.6421ZM9 12.9988C7.97006 12.9988 6.97128 13.3633 6.1704 14.0315C5.38343 13.534 4.73366 12.836 4.28353 12.0047C3.83339 11.1733 3.59801 10.2365 3.6 9.28417C3.60027 8.31275 3.84665 7.35829 4.31472 6.51544C4.78279 5.6726 5.45628 4.97067 6.26838 4.47927C7.08048 3.98788 8.00298 3.7241 8.94437 3.71409C9.88576 3.70408 10.8133 3.9482 11.6351 4.42222C12.4568 4.89625 13.1442 5.58371 13.629 6.41643C14.1138 7.24914 14.3792 8.19817 14.3988 9.16937C14.4185 10.1406 14.1917 11.1002 13.7411 11.9531C13.2904 12.806 12.6314 13.5224 11.8296 14.0315C11.0287 13.3633 10.0299 12.9988 9 12.9988ZM5.4 9.28417C5.4 10.2693 5.77928 11.2142 6.45442 11.9108C7.12955 12.6074 8.04522 12.9988 9 12.9988C9.95478 12.9988 10.8705 12.6074 11.5456 11.9108C12.2207 11.2142 12.6 10.2693 12.6 9.28417C12.6 8.29899 12.2207 7.35415 11.5456 6.65753C10.8705 5.9609 9.95478 5.56954 9 5.56954C8.04522 5.56954 7.12955 5.9609 6.45442 6.65753C5.77928 7.35415 5.4 8.29899 5.4 9.28417Z" 
fill="#4D8CEC"/>
</svg>
