<svg width="28" height="29" viewBox="0 0 28 29" fill="none" xmlns="http://www.w3.org/2000/svg">
<path d="M5.83333 25C5.19167 25 4.64256 24.7717 4.186 24.3152C3.72944 23.8586 3.50078 23.3091 3.5 22.6667V6.33333C3.5 5.69167 3.72867 5.14256 4.186 4.686C4.64333 4.22944 5.19244 4.00078 5.83333 4H22.1667C22.8083 4 23.3578 4.22867 23.8152 4.686C24.2725 5.14333 24.5008 5.69244 24.5 6.33333V9.25H22.1667V6.33333H5.83333V22.6667H22.1667V19.75H24.5V22.6667C24.5 23.3083 24.2717 23.8578 23.8152 24.3152C23.3586 24.7725 22.8091 25.0008 22.1667 25H5.83333ZM15.1667 20.3333C14.525 20.3333 13.9759 20.1051 13.5193 19.6485C13.0628 19.1919 12.8341 18.6424 12.8333 18V11C12.8333 10.3583 13.062 9.80922 13.5193 9.35267C13.9767 8.89611 14.5258 8.66744 15.1667 8.66667H23.3333C23.975 8.66667 24.5245 8.89533 24.9818 9.35267C25.4392 9.81 25.6674 10.3591 25.6667 11V18C25.6667 18.6417 25.4384 19.1912 24.9818 19.6485C24.5253 20.1058 23.9758 20.3341 23.3333 20.3333H15.1667ZM23.3333 18V11H15.1667V18H23.3333ZM18.6667 16.25C19.1528 16.25 19.5662 16.0801 19.9068 15.7402C20.2475 15.4003 20.4174 14.9869 20.4167 14.5C20.4159 14.0131 20.2459 13.6001 19.9068 13.261C19.5677 12.9219 19.1543 12.7516 18.6667 12.75C18.179 12.7484 17.766 12.9188 17.4277 13.261C17.0893 13.6032 16.919 14.0162 16.9167 14.5C16.9143 14.9838 17.0847 15.3972 17.4277 15.7402C17.7707 16.0832 18.1837 16.2531 18.6667 16.25Z" fill="#4D8CEC"/>
</svg>
